<svg width="33" height="33" viewBox="0 0 33 33" fill="none" xmlns="http://www.w3.org/2000/svg">
<path d="M23.375 14.8775L19.1262 17.138L20.7488 23.375L16.5 19.4288L12.2512 23.375L13.8738 17.138L9.625 14.8775L14.8775 14.619L16.5 9.625L18.1225 14.619L23.375 14.8775ZM17.875 5.5V2.75C17.875 2.38533 17.7301 2.03559 17.4723 1.77773C17.2144 1.51987 16.8647 1.375 16.5 1.375C16.1353 1.375 15.7856 1.51987 15.5277 1.77773C15.2699 2.03559 15.125 2.38533 15.125 2.75V5.5C15.125 5.86467 15.2699 6.21441 15.5277 6.47227C15.7856 6.73013 16.1353 6.875 16.5 6.875C16.8647 6.875 17.2144 6.73013 17.4723 6.47227C17.7301 6.21441 17.875 5.86467 17.875 5.5ZM15.125 27.5V30.25C15.125 30.6147 15.2699 30.9644 15.5277 31.2223C15.7856 31.4801 16.1353 31.625 16.5 31.625C16.8647 31.625 17.2144 31.4801 17.4723 31.2223C17.7301 30.9644 17.875 30.6147 17.875 30.25V27.5C17.875 27.1353 17.7301 26.7856 17.4723 26.5277C17.2144 26.2699 16.8647 26.125 16.5 26.125C16.1353 26.125 15.7856 26.2699 15.5277 26.5277C15.2699 26.7856 15.125 27.1353 15.125 27.5ZM27.1947 5.80525C26.9369 5.54748 26.5872 5.40267 26.2226 5.40267C25.858 5.40267 25.5084 5.54748 25.2505 5.80525L23.3063 7.7495C23.1749 7.87634 23.0702 8.02806 22.9981 8.19582C22.926 8.36357 22.8881 8.544 22.8865 8.72657C22.8849 8.90914 22.9197 9.0902 22.9889 9.25919C23.058 9.42817 23.1601 9.58169 23.2892 9.71079C23.4183 9.8399 23.5718 9.94199 23.7408 10.0111C23.9098 10.0803 24.0909 10.1151 24.2734 10.1135C24.456 10.1119 24.6364 10.074 24.8042 10.0019C24.9719 9.92983 25.1237 9.82508 25.2505 9.69375L27.1947 7.7495C27.4525 7.49165 27.5973 7.14198 27.5973 6.77737C27.5973 6.41277 27.4525 6.0631 27.1947 5.80525ZM5.80525 27.1947C6.0631 27.4525 6.41277 27.5973 6.77737 27.5973C7.14198 27.5973 7.49165 27.4525 7.7495 27.1947L9.69375 25.2505C9.94422 24.9912 10.0828 24.6438 10.0797 24.2833C10.0765 23.9228 9.93194 23.5779 9.677 23.323C9.42206 23.0681 9.0772 22.9235 8.71668 22.9203C8.35616 22.9172 8.00883 23.0558 7.7495 23.3063L5.80525 25.2505C5.54748 25.5084 5.40267 25.858 5.40267 26.2226C5.40267 26.5872 5.54748 26.9369 5.80525 27.1947ZM30.25 15.125H27.5C27.1353 15.125 26.7856 15.2699 26.5277 15.5277C26.2699 15.7856 26.125 16.1353 26.125 16.5C26.125 16.8647 26.2699 17.2144 26.5277 17.4723C26.7856 17.7301 27.1353 17.875 27.5 17.875H30.25C30.6147 17.875 30.9644 17.7301 31.2223 17.4723C31.4801 17.2144 31.625 16.8647 31.625 16.5C31.625 16.1353 31.4801 15.7856 31.2223 15.5277C30.9644 15.2699 30.6147 15.125 30.25 15.125ZM2.75 17.875H5.5C5.86467 17.875 6.21441 17.7301 6.47227 17.4723C6.73013 17.2144 6.875 16.8647 6.875 16.5C6.875 16.1353 6.73013 15.7856 6.47227 15.5277C6.21441 15.2699 5.86467 15.125 5.5 15.125H2.75C2.38533 15.125 2.03559 15.2699 1.77773 15.5277C1.51987 15.7856 1.375 16.1353 1.375 16.5C1.375 16.8647 1.51987 17.2144 1.77773 17.4723C2.03559 17.7301 2.38533 17.875 2.75 17.875ZM25.2505 27.1947C25.5098 27.4452 25.8572 27.5838 26.2177 27.5807C26.5782 27.5775 26.9231 27.4329 27.178 27.178C27.4329 26.9231 27.5775 26.5782 27.5807 26.2177C27.5838 25.8572 27.4452 25.5098 27.1947 25.2505L25.2505 23.3063C24.9912 23.0558 24.6438 22.9172 24.2833 22.9203C23.9228 22.9235 23.5779 23.0681 23.323 23.323C23.0681 23.5779 22.9235 23.9228 22.9203 24.2833C22.9172 24.6438 23.0558 24.9912 23.3063 25.2505L25.2505 27.1947ZM9.69375 9.69375C9.95152 9.4359 10.0963 9.08623 10.0963 8.72162C10.0963 8.35702 9.95152 8.00735 9.69375 7.7495L7.7495 5.80525C7.49017 5.55478 7.14284 5.41619 6.78232 5.41932C6.4218 5.42246 6.07694 5.56706 5.822 5.822C5.56706 6.07694 5.42246 6.4218 5.41932 6.78232C5.41619 7.14284 5.55478 7.49017 5.80525 7.7495L7.7495 9.69375C8.00735 9.95152 8.35702 10.0963 8.72162 10.0963C9.08623 10.0963 9.4359 9.95152 9.69375 9.69375Z" fill="url(#paint0_linear_5_99)"/>
<defs>
<linearGradient id="paint0_linear_5_99" x1="31" y1="-3.5" x2="-6.5" y2="35" gradientUnits="userSpaceOnUse">
<stop stop-color="#DD1818"/>
<stop offset="1" stop-color="#FF9900" stop-opacity="0.37"/>
</linearGradient>
</defs>
</svg>
