<svg width="32" height="32" viewBox="0 0 32 32" fill="none" xmlns="http://www.w3.org/2000/svg">
<path d="M29.2267 7.49334C29.1267 7.24984 28.9568 7.04141 28.7385 6.8943C28.5202 6.74719 28.2633 6.66798 28 6.66667H25.3334V4C25.332 3.73677 25.2528 3.47981 25.1057 3.26152C24.9586 3.04323 24.7502 2.87336 24.5067 2.77333C24.2639 2.67123 23.9963 2.64333 23.7376 2.69316C23.479 2.743 23.2409 2.86832 23.0534 3.05334L19.0534 7.05334C18.9298 7.17792 18.832 7.32568 18.7657 7.48813C18.6993 7.65058 18.6657 7.82453 18.6667 8V11.4533L15.72 14.3867C15.595 14.5106 15.4959 14.6581 15.4282 14.8206C15.3605 14.983 15.3256 15.1573 15.3256 15.3333C15.3256 15.5094 15.3605 15.6836 15.4282 15.8461C15.4959 16.0086 15.595 16.1561 15.72 16.28C15.844 16.405 15.9914 16.5042 16.1539 16.5719C16.3164 16.6395 16.4907 16.6744 16.6667 16.6744C16.8427 16.6744 17.017 16.6395 17.1795 16.5719C17.3419 16.5042 17.4894 16.405 17.6134 16.28L20.5467 13.3333H24C24.1755 13.3344 24.3494 13.3007 24.5119 13.2344C24.6743 13.168 24.8221 13.0702 24.9467 12.9467L28.9467 8.94667C29.1317 8.75917 29.257 8.52107 29.3069 8.26242C29.3567 8.00377 29.3288 7.73615 29.2267 7.49334Z" fill="#BC4F2C"/>
<path d="M16 29.3333C12.4638 29.3333 9.07241 27.9286 6.57193 25.4281C4.07144 22.9276 2.66669 19.5362 2.66669 16C2.66669 12.4638 4.07144 9.0724 6.57193 6.57191C9.07241 4.07143 12.4638 2.66667 16 2.66667H16.56C16.7351 2.68243 16.9054 2.73252 17.0611 2.81408C17.2169 2.89565 17.355 3.00709 17.4677 3.14204C17.5803 3.277 17.6653 3.43282 17.7178 3.60062C17.7702 3.76842 17.7891 3.94491 17.7734 4.12C17.7576 4.2951 17.7075 4.46537 17.6259 4.62111C17.5444 4.77685 17.4329 4.91499 17.298 5.02766C17.163 5.14033 17.0072 5.22532 16.8394 5.27776C16.6716 5.33021 16.4951 5.34909 16.32 5.33333H16C13.8904 5.33333 11.8281 5.95892 10.0739 7.13099C8.31981 8.30306 6.95264 9.96897 6.14531 11.918C5.33797 13.8671 5.12674 16.0118 5.53831 18.081C5.94989 20.1501 6.96579 22.0507 8.45755 23.5425C9.94931 25.0342 11.8499 26.0501 13.9191 26.4617C15.9882 26.8733 18.1329 26.6621 20.082 25.8547C22.0311 25.0474 23.697 23.6802 24.869 21.9261C26.0411 20.172 26.6667 18.1097 26.6667 16C26.6733 15.8934 26.6733 15.7866 26.6667 15.68C26.6502 15.5048 26.6686 15.328 26.7207 15.1599C26.7729 14.9918 26.8578 14.8357 26.9706 14.7006C27.0834 14.5655 27.2219 14.4541 27.3779 14.3727C27.534 14.2914 27.7047 14.2417 27.88 14.2267C28.0553 14.2102 28.232 14.2286 28.4001 14.2807C28.5682 14.3329 28.7243 14.4178 28.8594 14.5306C28.9945 14.6434 29.106 14.7818 29.1873 14.9379C29.2687 15.094 29.3183 15.2646 29.3334 15.44C29.3334 15.6267 29.3334 15.8133 29.3334 16C29.3334 19.5362 27.9286 22.9276 25.4281 25.4281C22.9276 27.9286 19.5362 29.3333 16 29.3333ZM23.84 17.6C23.9107 17.2464 23.8381 16.8791 23.6381 16.5791C23.438 16.279 23.127 16.0707 22.7734 16C22.4197 15.9293 22.0525 16.0019 21.7524 16.202C21.4524 16.402 21.2441 16.713 21.1734 17.0667C20.9818 18.0138 20.5366 18.8911 19.8852 19.6049C19.2339 20.3186 18.4008 20.842 17.4751 21.1191C16.5493 21.3961 15.5657 21.4165 14.6293 21.178C13.6929 20.9395 12.8389 20.451 12.1586 19.7648C11.4782 19.0787 10.997 18.2205 10.7665 17.2821C10.5359 16.3437 10.5647 15.3603 10.8496 14.437C11.1346 13.5137 11.665 12.6851 12.3843 12.0398C13.1036 11.3945 13.9846 10.9568 14.9334 10.7733C15.287 10.7026 15.598 10.4943 15.7981 10.1942C15.9981 9.89419 16.0707 9.52696 16 9.17333C15.9293 8.81971 15.721 8.50867 15.4209 8.30863C15.1209 8.10859 14.7536 8.03594 14.4 8.10667C12.9842 8.39606 11.6731 9.06357 10.6062 10.0383C9.53929 11.013 8.75631 12.2585 8.34046 13.6425C7.9246 15.0265 7.89141 16.4973 8.24439 17.8987C8.59737 19.3 9.32336 20.5796 10.3452 21.6015C11.3671 22.6233 12.6467 23.3493 14.048 23.7023C15.4494 24.0553 16.9202 24.0221 18.3042 23.6062C19.6882 23.1904 20.9337 22.4074 21.9084 21.3405C22.8831 20.2736 23.5506 18.9625 23.84 17.5467V17.6Z" fill="url(#paint0_linear_5_101)"/>
<defs>
<linearGradient id="paint0_linear_5_101" x1="40" y1="-8" x2="-1.5" y2="31" gradientUnits="userSpaceOnUse">
<stop stop-color="#F90505"/>
<stop offset="0.464694" stop-color="#FA8F06" stop-opacity="0.662997"/>
<stop offset="1" stop-color="#FB9907" stop-opacity="0.39"/>
</linearGradient>
</defs>
</svg>
