<svg width="32" height="32" viewBox="0 0 32 32" fill="none" xmlns="http://www.w3.org/2000/svg">
<g clip-path="url(#clip0_5_109)">
<path d="M29.3333 28V3.99999C29.3333 3.64637 29.1929 3.30723 28.9428 3.05718C28.6928 2.80713 28.3536 2.66666 28 2.66666H4.00001C3.64639 2.66666 3.30725 2.80713 3.0572 3.05718C2.80715 3.30723 2.66668 3.64637 2.66668 3.99999V7.33332C2.66449 7.52659 2.70435 7.71803 2.78349 7.89437C2.86263 8.07071 2.97917 8.22773 3.12502 8.35456C3.27087 8.48139 3.44256 8.57499 3.62818 8.62888C3.8138 8.68277 4.00891 8.69566 4.20001 8.66666C4.52345 8.60396 4.81442 8.42919 5.02172 8.17312C5.22902 7.91705 5.33936 7.59607 5.33334 7.26666V5.33332H26.6667V26.6667H5.33334V24.6667C5.33553 24.4734 5.29567 24.2819 5.21653 24.1056C5.13739 23.9293 5.02085 23.7722 4.875 23.6454C4.72915 23.5186 4.55746 23.425 4.37184 23.3711C4.18622 23.3172 3.99111 23.3043 3.80001 23.3333C3.47657 23.396 3.1856 23.5708 2.9783 23.8269C2.771 24.0829 2.66066 24.4039 2.66668 24.7333V28C2.66668 28.3536 2.80715 28.6927 3.0572 28.9428C3.30725 29.1928 3.64639 29.3333 4.00001 29.3333H28C28.3536 29.3333 28.6928 29.1928 28.9428 28.9428C29.1929 28.6927 29.3333 28.3536 29.3333 28Z" fill="url(#paint0_linear_5_109)"/>
<path d="M15 22.9333L20.9334 16.9333C21.0627 16.8147 21.1659 16.6704 21.2366 16.5097C21.3072 16.3491 21.3437 16.1755 21.3437 16C21.3437 15.8245 21.3072 15.6509 21.2366 15.4902C21.1659 15.3295 21.0627 15.1853 20.9334 15.0666L15 9.06665C14.7639 8.83566 14.4538 8.69558 14.1244 8.67119C13.795 8.64679 13.4676 8.73963 13.2 8.93331C13.0393 9.04122 12.9055 9.18451 12.8089 9.35219C12.7122 9.51987 12.6552 9.70746 12.6424 9.90058C12.6295 10.0937 12.6611 10.2872 12.7346 10.4662C12.8082 10.6452 12.9218 10.805 13.0667 10.9333L16.8 14.6666H4.00002C3.6464 14.6666 3.30726 14.8071 3.05721 15.0572C2.80716 15.3072 2.66669 15.6464 2.66669 16C2.66669 16.3536 2.80716 16.6927 3.05721 16.9428C3.30726 17.1928 3.6464 17.3333 4.00002 17.3333H16.8L13.0667 21.0666C12.9218 21.1949 12.8082 21.3547 12.7346 21.5337C12.6611 21.7128 12.6295 21.9063 12.6424 22.0994C12.6552 22.2925 12.7122 22.4801 12.8089 22.6478C12.9055 22.8154 13.0393 22.9587 13.2 23.0666C13.4676 23.2603 13.795 23.3532 14.1244 23.3288C14.4538 23.3044 14.7639 23.1643 15 22.9333Z" fill="url(#paint1_linear_5_109)"/>
</g>
<defs>
<linearGradient id="paint0_linear_5_109" x1="42" y1="-8" x2="-10" y2="38" gradientUnits="userSpaceOnUse">
<stop stop-color="#FF0000"/>
<stop offset="1" stop-color="#FC9700" stop-opacity="0.56"/>
</linearGradient>
<linearGradient id="paint1_linear_5_109" x1="30.2152" y1="2.80127" x2="1.60623" y2="35.032" gradientUnits="userSpaceOnUse">
<stop stop-color="#FF0000"/>
<stop offset="1" stop-color="#FC9700" stop-opacity="0.56"/>
</linearGradient>
<clipPath id="clip0_5_109">
<rect width="32" height="32" fill="white"/>
</clipPath>
</defs>
</svg>
